<?xml version="1.0" encoding="utf-8"?>
<!-- Generator: Adobe Illustrator 25.2.3, SVG Export Plug-In . SVG Version: 6.00 Build 0)  -->
<svg version="1.1" id="Layer_1" xmlns="http://www.w3.org/2000/svg" xmlns:xlink="http://www.w3.org/1999/xlink" x="0px" y="0px"
	 viewBox="0 0 512 512" style="enable-background:new 0 0 512 512;" xml:space="preserve">
<style type="text/css">
	.st0{fill:#5BA9B4;}
</style>
<path class="st0" d="M264,509c-25.6,0-47.8-19.1-51.6-44.5l-0.2-1.3l-51.6-36.8c-3.1-2.2-5-5.9-5-9.8s1.9-7.5,5-9.8l51.2-36.6v-70.2
	H55.2C26.4,300.1,3,276.7,3,248V55.2C3,26.4,26.4,3,55.2,3H248c25.6,0,47.8,19.1,51.6,44.5l0.2,1.3l51.6,36.8c3.1,2.2,5,5.9,5,9.8
	c0,3.9-1.9,7.5-5,9.8l-51.2,36.6v70.2h156.7c28.8,0,52.2,23.4,52.2,52.2v192.8c0,28.8-23.4,52.2-52.2,52.2H264z M264,235.9
	c-15.5,0-28.2,12.6-28.2,28.2v112.5c0,3.9-1.9,7.5-5,9.8l-42.6,30.4l42.6,30.4c3.1,2.2,5,5.9,5,9.8c0,15.5,12.6,28.2,28.2,28.2
	h192.8c15.5,0,28.2-12.6,28.2-28.2V264c0-15.5-12.6-28.2-28.2-28.2H264z M55.2,27C39.6,27,27,39.6,27,55.2V248
	c0,15.5,12.6,28.2,28.2,28.2h156.7V264c0-28.8,23.4-52.2,52.2-52.2h12.1v-76.4c0-3.9,1.9-7.5,5-9.8l42.6-30.4l-42.6-30.4
	c-3.1-2.2-5-5.9-5-9.8c0-15.5-12.6-28.2-28.2-28.2H55.2z"/>
<g>
	<path class="st0" d="M165.2,92.6c-1.4,2.9-2.9,5.6-4.6,8c-11.8,1.9-22,4.9-30.6,8.8l-0.2-0.4l2.8-4.9c1.1-1.3,3.4-3.2,5.4-3.9v-0.4
		c-5.5-1.6-9.2-5.2-9.2-10.2c0-3.2,2.2-7.3,5.5-10.3c3.9-3.8,9.4-6.7,14.2-6.7c4.7,0,7.4,2.7,7.4,5.8s-1.9,5.4-3.8,7.6H152
		c-1.3-2.6-2.5-4.2-3.8-4.6c-0.8-0.2-2.2-0.4-3.6-0.4c-4.1,0-8.2,2.4-8.2,4.1c0,5.6,9.9,7.5,16.8,7.5c4,0,8-0.2,12-0.5V92.6z
		 M143.3,231.7c1.2-7.4,1.3-15.8,1.3-23.5v-11.5c0-21.5-2.4-52.8-4.2-73.1c3.3-4.2,7.9-9.2,11.5-12.5l1.1,0.4
		c2.5,25.6,3.1,55.4,3.1,82.8c0,7.2-0.2,14.2-0.8,19.4c-0.4,6.5-3.5,11.4-10.3,18.9L143.3,231.7z"/>
</g>
<g>
	<path class="st0" d="M360.6,304.2l36.6,91c3.9,9.6,9.6,15.7,17.1,16.4v4.1c-1.9,0.5-5.5,1-7.9,1c-5.3,0-11.6-1-17.1-3.9
		c-6-2.9-12.3-7.9-15.2-17.6l-3.9-12.8h-43.3l-13.5,34h-8.7l48.4-112.2H360.6z M349.3,332.4l-19,42.9h37.1L349.3,332.4z"/>
</g>
</svg>
