<svg id="Capa_1" enable-background="new 0 0 512.12 512.12" height="512" viewBox="0 0 512.12 512.12" width="512" xmlns="http://www.w3.org/2000/svg"><g><path d="m450.371 162.81 29.393-58.764c1.799-6.112-.437-9.73-6.708-10.855h-85.691v-54.627c0-4.143-3.357-7.5-7.5-7.5h-107.92c.184-16.012-9.136-31.064-26.91-31.064-14.838 0-26.91 12.072-26.91 26.91v119.56c0 4.143 3.358 7.5 7.5 7.5s7.5-3.357 7.5-7.5v-119.56c0-6.567 5.343-11.91 11.91-11.91s11.91 5.343 11.91 11.91v299.38h-10.315c-7.444 0-13.5-6.056-13.5-13.5l-.005-133.64c0-4.143-3.358-7.5-7.5-7.5s-7.5 3.357-7.5 7.5v100.64c-13.045.557-27.077 4.096-39.504 27.099-6.272 11.611-11.947 13.019-20.537 15.148-5.819 1.443-12.526 3.107-19.515 8.185-1.26-2.37-3.752-3.984-6.623-3.984h-22.88v-9.979c0-4.143-3.358-7.5-7.5-7.5h-62.31c-4.142 0-7.5 3.357-7.5 7.5v87.25c0 4.143 3.358 7.5 7.5 7.5s7.5-3.357 7.5-7.5v-79.75h47.31v142.3h-47.31v-29.859c0-4.143-3.358-7.5-7.5-7.5s-7.5 3.357-7.5 7.5v37.359c0 4.143 3.358 7.5 7.5 7.5l92.69-.003c4.142 0 7.5-3.357 7.5-7.5v-6.235c8.482 1.022 14.914 3.038 21.083 7.808 4.948 3.824 11.246 5.931 17.733 5.931h39.863v23.56c0 4.143 3.358 7.5 7.5 7.5h38.82c4.143 0 7.5-3.357 7.5-7.5v-23.56h15.517c19.835 0 31.758-22.681 21.035-39.072 12.084-7.842 14.893-23.792 6.679-35.532 11.392-8.073 13.796-23.458 5.847-34.888 19.674-13.842 9.068-43.106-13.599-45.245-.234-.022-35.479-.033-35.479-.033v-155.977h38.29v54.627c0 4.015 3.391 7.5 7.5 7.5h76.97c4.143 0 7.5-3.357 7.5-7.5s-3.357-7.5-7.5-7.5h-58.861l49.324-49.323c1.39-1.39 2.196-3.338 2.196-5.304v-54.623h73.555l-25.642 51.264c-1.056 2.112-1.056 4.598 0 6.71l25.643 51.276h-33.535c-4.143 0-7.5 3.357-7.5 7.5s3.357 7.5 7.5 7.5h45.671c6.27-1.125 8.506-4.743 6.708-10.854zm-325.925 303.247h-15.377v-124.819h15.377zm132.499 31.063h-23.82v-16.06h23.82zm49.399-155.83c13.053 1.393 13.525 19.94-.071 19.94h-5.464c-10.86 1.436-10.193 13.77-.708 14.967 12.956 1.635 14.241 19.974.252 19.974h-5.354c-13.384.162-12.05 14.829-.708 14.967 13.768.167 13.719 19.973.262 19.973h-6.634c-12.637.223-9.97 14.223-.708 14.967 13.363 1.073 13.97 19.983.251 19.983h-109.2c-3.186 0-6.225-.994-8.559-2.798-9.81-7.585-20.172-10.012-30.255-11.049v-101.76c7.625-10.23 14.432-11.919 22.246-13.856 9.703-2.406 20.7-5.134 30.123-22.579 8.511-15.755 16.463-18.675 26.307-19.215 0 0 .008 18.115.01 18.181.106 15.625 12.846 28.305 28.495 28.305zm18.895-134.459v-36.518h36.519zm47.125-51.518h-100.418v-109.249h100.418z"/><path d="m77.912 379.881v-30.518c0-4.143-3.358-7.5-7.5-7.5s-7.5 3.357-7.5 7.5v30.518c0 4.143 3.358 7.5 7.5 7.5s7.5-3.358 7.5-7.5z"/></g></svg>