<svg id="Solid" height="512" viewBox="0 0 512 512" width="512" xmlns="http://www.w3.org/2000/svg"><path d="m163.246 362.5-4.592 16.837 30.006 30.006 16.838-4.592a56.085 56.085 0 0 0 18.772-9.169l-51.855-51.856a56.1 56.1 0 0 0 -9.169 18.774z"/><path d="m147.751 233.858h272.499v12.283h-272.499z" transform="matrix(.707 -.707 .707 .707 -86.524 271.113)"/><path d="m169.751 253.03h272.499v17.94h-272.499z" transform="matrix(.707 -.707 .707 .707 -95.637 293.113)"/><path d="m461.656 96.971a30.624 30.624 0 0 0 -43.312 0l-11.03 11.029 52.686 52.686 11.029-11.03a30.624 30.624 0 0 0 0-43.312z"/><path d="m191.751 277.858h272.499v12.283h-272.499z" transform="matrix(.707 -.707 .707 .707 -104.749 315.113)"/><path d="m411.858 112.745h12.284v74.51h-12.284z" transform="matrix(.707 -.707 .707 .707 16.363 339.505)"/><path d="m147.402 420.598 23.478-6.403-17.075-17.075z"/><path d="m128 440h-87.454c-13.427 0-24.769-10.987-24.546-24.411a24.029 24.029 0 0 1 24-23.589h39.717a8.19 8.19 0 0 0 8.265-7.452 8.009 8.009 0 0 0 -7.982-8.548h-23.726a8.183 8.183 0 0 1 -8.257-7.467 8 8 0 0 1 7.983-8.533h23.454c13.427 0 24.769 10.987 24.543 24.411a24.029 24.029 0 0 1 -23.997 23.589h-39.717a8.19 8.19 0 0 0 -8.265 7.452 8.009 8.009 0 0 0 7.982 8.548h88a8 8 0 0 1 8 8 8 8 0 0 1 -8 8z"/><path d="m488 440h-256a8 8 0 0 1 0-16h256a8 8 0 0 1 0 16z"/></svg>